<svg xmlns="http://www.w3.org/2000/svg" viewBox="0 0 64 64" role="img" aria-label="WhatsApp">
  <circle cx="32" cy="32" r="31" fill="#25D366"/>
  <path fill="#fff" d="M18.7 47.2l2-7.3a14.7 14.7 0 1 1 5.7 5.5l-7.7 1.8zm8.1-4.5.5.3a12.1 12.1 0 1 0-3.8-3.6l.3.6-1.2 4.2 4.2-1.5z"/>
  <path fill="#fff" d="M39.7 34.8c-.6-.3-3.3-1.6-3.8-1.8-.5-.2-.9-.3-1.3.3-.4.6-1.5 1.8-1.8 2.2-.3.4-.7.4-1.2.1-.6-.3-2.4-.9-4.6-2.8-1.7-1.5-2.8-3.4-3.1-4-.3-.6 0-.9.3-1.2.3-.3.6-.7.9-1 .3-.3.4-.6.6-1 .2-.4.1-.7 0-1-.1-.3-1.3-3.1-1.8-4.2-.5-1.1-1-1-1.3-1h-1.1c-.4 0-1 .1-1.5.7-.5.6-2 1.9-2 4.7s2.1 5.5 2.4 5.9c.3.4 4.1 6.2 9.9 8.7 1.4.6 2.5 1 3.3 1.2 1.4.4 2.7.3 3.7.2 1.1-.2 3.3-1.4 3.8-2.7.5-1.3.5-2.4.3-2.7-.2-.2-.6-.4-1.2-.7z"/>
</svg>
